<?xml version="1.0" standalone="no"?>
<!DOCTYPE svg PUBLIC "-//W3C//DTD SVG 20010904//EN"
 "http://www.w3.org/TR/2001/REC-SVG-20010904/DTD/svg10.dtd">
<svg version="1.0" xmlns="http://www.w3.org/2000/svg"
 width="133.000000pt" height="133.000000pt" viewBox="0 0 133.000000 133.000000"
 preserveAspectRatio="xMidYMid meet">
<metadata>
Created by potrace 1.14, written by Peter Selinger 2001-2017
</metadata>
<g transform="translate(0.000000,133.000000) scale(0.100000,-0.100000)"
fill="#000000" stroke="none">
<path d="M1003 1245 c-33 -14 -95 -80 -119 -126 -17 -34 -22 -126 -13 -241 l4
-56 -50 -34 c-56 -39 -71 -79 -37 -97 15 -8 29 -4 66 19 52 33 56 35 56 19 0
-5 14 -38 31 -72 17 -34 48 -109 68 -167 29 -84 37 -118 35 -171 -2 -90 -10
-102 -72 -105 -28 -1 -55 -5 -61 -8 -15 -10 -14 -66 2 -67 6 -1 41 -2 76 -3
59 -2 66 0 93 29 36 38 42 61 41 165 -1 93 -24 176 -94 325 -56 122 -56 119
-8 140 22 11 50 20 61 20 30 3 50 33 37 56 -15 29 -75 30 -126 2 -18 -9 -35
-14 -39 -10 -4 3 -7 51 -7 106 0 80 3 104 18 127 46 70 76 86 127 68 35 -12
40 -12 59 7 26 26 12 53 -38 70 -51 17 -76 18 -110 4z"/>
<path d="M290 1160 c-54 -15 -89 -41 -120 -89 -42 -67 -60 -129 -55 -193 5
-55 23 -88 67 -121 32 -24 166 -30 248 -11 30 7 55 12 56 11 0 -1 31 -60 69
-132 37 -71 86 -159 108 -195 22 -36 45 -75 52 -88 15 -28 12 -102 -5 -112
-39 -24 -171 23 -374 133 -99 53 -129 57 -134 15 -4 -32 22 -51 187 -133 146
-74 201 -94 268 -99 107 -8 152 34 148 140 -1 44 -9 73 -27 105 -14 24 -51 89
-83 144 -31 55 -75 135 -96 178 l-40 78 26 30 c27 33 27 32 29 104 2 44 -2 54
-30 83 -28 28 -36 31 -58 22 -14 -5 -26 -6 -27 -2 -4 44 -41 97 -82 118 -33
18 -93 24 -127 14z m106 -104 c16 -18 20 -34 17 -67 -2 -24 -5 -49 -8 -56 -5
-15 31 -47 44 -38 12 7 13 4 15 -35 1 -22 -5 -26 -49 -36 -61 -13 -164 -11
-194 5 -11 7 -21 19 -22 29 -1 9 -2 29 -3 44 -6 64 53 162 107 176 44 12 68 7
93 -22z"/>
</g>
</svg>
